<svg width="1024" height="1024" viewBox="0 0 1024 1024" fill="none" xmlns="http://www.w3.org/2000/svg">
<rect width="1024" height="1024" rx="230" fill="white"/>
<g clip-path="url(#clip0_2421_252)">
<path d="M807.404 590.855C806.79 593.938 804.886 597.733 799.323 598.311C799.16 598.325 798.998 598.339 798.836 598.347C792.856 598.734 787.214 601.288 782.976 605.528C778.35 610.162 775.741 616.454 775.741 623C775.741 629.187 778.061 635.147 782.243 639.704C783.731 641.32 785.289 642.886 786.876 644.353C795.409 652.331 792.249 661.967 791.079 664.732C789.598 668.224 784.944 676.279 773.788 675.687C773.738 675.687 773.689 675.68 773.64 675.68C773.238 675.659 772.836 675.63 772.434 675.602C765.607 675.122 758.88 677.493 753.866 682.169C748.859 686.839 746.01 693.378 746.01 700.228V1024H277.997V699.501C277.997 692.652 275.148 686.113 270.141 681.443C265.127 676.773 258.4 674.396 251.573 674.876C251.164 674.904 250.762 674.939 250.353 674.953C250.311 674.96 250.262 674.96 250.219 674.96C239.035 675.539 234.402 667.497 232.921 664.012C231.751 661.247 228.598 651.611 237.124 643.633C238.711 642.166 240.269 640.6 241.757 638.978C245.939 634.421 248.266 628.46 248.266 622.274C248.266 615.728 245.657 609.435 241.031 604.808C236.786 600.561 231.151 598.015 225.164 597.627C225.009 597.613 224.847 597.606 224.685 597.585C219.121 597.013 217.217 593.218 216.596 590.129C216.138 587.801 215.722 582.031 221.934 578.687C238.563 569.721 251.757 557.476 261.157 542.302C272.179 524.491 277.715 502.969 277.616 478.337C277.595 473.265 277.581 468.44 277.581 464.214C277.581 410.152 316.684 360.365 379.629 334.286C391.977 329.172 398.013 315.142 393.239 302.656C385.44 282.27 384.438 265.658 390.263 253.285C391.342 251.007 393.218 250.104 394.607 249.744C395.672 249.469 398.45 249.053 401.201 251.049C420.558 265.072 443.166 267.527 445.684 267.767C452.376 268.388 459.026 266.25 464.111 261.856C469.195 257.461 472.263 251.176 472.615 244.468C473.666 224.328 478.771 208.859 487.791 198.497C494.617 190.652 504.144 185.298 516.104 182.59C518.572 182.032 520.244 182.449 521.682 183.993C523.057 185.461 523.727 187.584 523.29 189.058C514.849 217.324 511.986 235.869 511.866 236.645C509.969 249.123 517.797 261.03 530.004 264.233C542.217 267.435 554.876 260.903 559.346 249.095C563.486 238.168 578.302 231.552 584.677 231.707C585.283 231.721 599.253 232.285 599.662 247.924C599.535 248.686 599.225 250.139 598.992 251.239C597.152 259.803 594.077 274.13 600.466 290.382C607.222 307.559 622.256 321.286 646.43 332.332C675.174 346.271 699.552 364.936 716.949 386.324C736.511 410.378 746.426 436.824 746.426 464.941C746.426 469.166 746.412 473.991 746.391 479.056C746.285 503.696 751.828 525.218 762.85 543.029C772.243 558.202 785.437 570.441 802.066 579.407C808.278 582.757 807.869 588.527 807.404 590.855Z" fill="white"/>
<path d="M362.965 590.538C358.551 597.641 351.09 603.207 343.283 605.753C333.933 608.977 323.214 608.335 314.328 604.074C306.141 600.145 301.571 594.248 299.019 588.64C296.572 583.251 302.375 577.812 307.622 580.57C313.658 583.745 321.5 586.806 329.842 587.293C338.805 587.815 347.846 584.718 354.757 581.403C360.511 578.652 366.336 585.12 362.965 590.538Z" fill="white"/>
<path d="M363.416 535.749L360.892 540.13C352.176 555.232 332.868 560.41 317.762 551.691C302.664 542.965 297.488 523.652 306.204 508.549L308.736 504.168C314.582 494.032 325.195 488.374 336.104 488.374C341.464 488.374 346.894 489.736 351.865 492.607C366.964 501.326 372.14 520.647 363.416 535.749Z" fill="white"/>
<path d="M660.584 535.749C651.867 520.647 657.036 501.326 672.142 492.607C677.113 489.736 682.543 488.374 687.895 488.374C698.812 488.374 709.425 494.032 715.271 504.168L717.796 508.549C726.519 523.652 721.343 542.965 706.237 551.691C691.139 560.41 671.831 555.232 663.108 540.13L660.584 535.749Z" fill="white"/>
<path d="M724.989 588.64C722.443 594.248 717.866 600.145 709.686 604.074C700.801 608.335 690.075 608.977 680.731 605.753C672.924 603.207 665.463 597.641 661.042 590.538C657.678 585.12 663.503 578.652 669.257 581.403C676.161 584.718 685.209 587.815 694.172 587.293C702.514 586.806 710.349 583.745 716.392 580.57C721.632 577.812 727.443 583.251 724.989 588.64Z" fill="white"/>
<path d="M855.808 600.533C861.013 574.489 848.834 548.53 825.485 535.939C805.366 525.09 795.641 506.552 795.754 479.267C795.775 474.125 795.79 469.229 795.79 464.94C795.79 444.357 792.01 424.182 784.556 404.981C777.765 387.494 767.906 370.734 755.241 355.166C733.26 328.142 702.98 304.835 667.671 287.757C667.494 287.666 667.318 287.588 667.142 287.503C650.464 279.92 647.058 273.96 646.409 272.309C645.535 270.087 646.141 266.779 647.255 261.601C648.102 257.658 649.061 253.193 649.032 248.248C648.941 228.99 641.536 211.659 628.194 199.434C616.791 188.994 601.425 182.765 586.024 182.342C581.715 182.229 577.195 182.617 572.59 183.485C571.553 171.359 566.434 159.579 557.76 150.289C544.361 135.941 524.715 130.015 505.209 134.431C482.798 139.503 464.414 150.148 450.557 166.076C440.162 178.018 432.673 192.613 428.16 209.676C414.627 200.704 398.055 197.875 382.316 201.924C366.11 206.093 352.733 217.133 345.61 232.235C336.506 251.57 334.743 273.671 340.329 298.155C310.471 313.639 285.035 334.265 265.959 358.594C241.271 390.097 228.218 426.623 228.218 464.214C228.218 468.502 228.232 473.398 228.253 478.54C228.366 505.825 218.641 524.37 198.508 535.219C178.763 545.871 167 566.095 167 587.835C167 591.793 167.388 595.799 168.192 599.806C170.815 612.941 177.331 624.149 186.527 632.353C180.272 648.345 180.349 666.466 187.479 683.29C195.37 701.899 210.44 715.379 228.634 721.192V1024H277.997V699.5C277.997 692.651 275.148 686.112 270.141 681.442C265.127 676.772 258.4 674.395 251.573 674.875C251.164 674.903 250.762 674.938 250.353 674.952C250.311 674.959 250.262 674.959 250.219 674.959C239.035 675.538 234.402 667.496 232.921 664.012C231.751 661.247 228.598 651.611 237.124 643.633C238.711 642.165 240.269 640.599 241.757 638.977C245.939 634.42 248.266 628.459 248.266 622.273C248.266 615.727 245.657 609.435 241.031 604.807C236.786 600.561 231.151 598.014 225.164 597.626C225.009 597.612 224.847 597.605 224.685 597.584C219.121 597.013 217.217 593.218 216.596 590.128C216.138 587.8 215.722 582.03 221.934 578.686C238.563 569.721 251.757 557.475 261.157 542.302C272.179 524.49 277.715 502.968 277.616 478.336C277.595 473.264 277.581 468.439 277.581 464.214C277.581 410.152 316.684 360.364 379.629 334.286C391.977 329.172 398.013 315.141 393.239 302.655C385.44 282.269 384.438 265.657 390.263 253.284C391.342 251.006 393.218 250.103 394.607 249.743C395.672 249.468 398.45 249.052 401.201 251.048C420.558 265.072 443.166 267.526 445.684 267.766C452.376 268.387 459.026 266.25 464.111 261.855C469.195 257.46 472.263 251.175 472.615 244.467C473.666 224.328 478.771 208.858 487.791 198.496C494.617 190.652 504.144 185.298 516.104 182.589C518.572 182.032 520.244 182.448 521.682 183.993C523.057 185.46 523.727 187.583 523.29 189.058C514.849 217.323 511.986 235.868 511.866 236.644C509.969 249.123 517.797 261.03 530.004 264.232C542.217 267.435 554.876 260.903 559.346 249.094C563.486 238.168 578.302 231.551 584.677 231.706C585.283 231.72 599.253 232.285 599.662 247.923C599.535 248.685 599.225 250.138 598.992 251.239C597.152 259.802 594.077 274.129 600.466 290.381C607.222 307.558 622.256 321.285 646.43 332.332C675.174 346.27 699.552 364.935 716.949 386.323C736.511 410.377 746.426 436.823 746.426 464.94C746.426 469.166 746.412 473.99 746.391 479.055C746.285 503.695 751.828 525.217 762.85 543.028C772.243 558.201 785.437 570.44 802.066 579.406C808.278 582.756 807.869 588.527 807.404 590.854C806.791 593.937 804.886 597.732 799.323 598.311C799.16 598.325 798.998 598.339 798.836 598.346C792.856 598.734 787.214 601.287 782.976 605.527C778.35 610.161 775.741 616.453 775.741 623C775.741 629.186 778.061 635.147 782.243 639.704C783.731 641.319 785.289 642.885 786.876 644.352C795.409 652.33 792.249 661.966 791.079 664.731C789.598 668.223 784.944 676.279 773.788 675.686C773.738 675.686 773.689 675.679 773.64 675.679C773.238 675.658 772.836 675.63 772.434 675.601C765.607 675.122 758.88 677.492 753.866 682.169C748.859 686.838 746.01 693.378 746.01 700.227V1024H795.374V721.918C813.56 716.106 828.637 702.618 836.528 684.01C843.658 667.193 843.728 649.071 837.473 633.073C846.676 624.876 853.185 613.667 855.808 600.533Z" fill="#020203"/>
<path d="M706.237 551.691C691.139 560.41 671.831 555.232 663.108 540.13L660.583 535.749C651.867 520.647 657.036 501.326 672.141 492.607C677.113 489.736 682.543 488.374 687.895 488.374C698.812 488.374 709.425 494.032 715.271 504.168L717.795 508.549C726.519 523.652 721.343 542.965 706.237 551.691Z" fill="#020203"/>
<path d="M363.416 535.749L360.892 540.13C352.176 555.232 332.868 560.41 317.762 551.691C302.664 542.965 297.488 523.652 306.204 508.549L308.736 504.168C314.582 494.032 325.195 488.374 336.104 488.374C341.464 488.374 346.894 489.736 351.865 492.607C366.964 501.326 372.14 520.647 363.416 535.749Z" fill="#020203"/>
<path d="M596.517 564.96C595.544 570.356 594.119 575.484 592.265 580.331C594.148 573.523 595.643 568.12 596.517 564.96Z" fill="#020203"/>
<path d="M625.035 572.444L624.971 572.663C624.062 575.957 622.44 581.819 620.388 589.24C622.468 583.54 624.111 577.587 625.303 571.407C625.225 571.753 625.134 572.098 625.035 572.444Z" fill="#020203"/>
<path d="M622.75 507.787C614.394 475.48 590.177 449.697 556.314 437.049C518.523 422.927 475.309 427.738 443.533 449.598C419.641 466.041 402.717 490.265 393.225 521.592C379.587 566.625 380.905 609.682 397.153 649.559C410.481 682.282 431.178 707.239 449.534 728.07C457.623 737.254 468.518 742.213 480.154 742.213C482.41 742.213 484.688 742.03 486.98 741.656C502.522 739.095 516.076 728.19 522.345 713.2C523.311 710.893 524.468 708.297 525.836 705.469C532.288 706.738 538.783 708.65 544.037 711.479C548.769 714.025 553.994 715.309 559.276 715.309C563.627 715.309 568.02 714.441 572.216 712.692C581.905 708.643 589.162 700.545 592.124 690.465C595.593 678.635 611.784 620.292 620.388 589.24C622.44 581.819 624.062 575.957 624.971 572.663L625.035 572.444C625.134 572.098 625.225 571.753 625.303 571.407C625.317 571.358 625.324 571.308 625.331 571.252C625.373 571.062 625.409 570.871 625.444 570.674C625.938 568.021 626.347 565.334 626.671 562.604C629.492 538.994 625.423 518.128 622.75 507.787ZM597.399 559.105C597.159 561.087 596.87 563.041 596.517 564.96C595.544 570.356 594.119 575.484 592.265 580.331C592.265 580.331 592.265 580.345 592.265 580.352C586.736 594.791 577.343 606.748 564.184 616.052C538.522 634.195 521.139 655.576 509.722 673.839C502.924 684.723 498.235 694.5 495.167 701.815C495.097 701.984 495.019 702.153 494.949 702.323C492.509 707.684 487.565 711.676 482.206 712.551C478.137 713.221 474.583 711.881 471.663 708.565C434.126 665.973 396.194 613.548 421.454 530.141C428.957 505.375 442.01 486.456 460.26 473.899C469.456 467.572 479.963 463.149 491.049 460.708C481.176 479.698 477.312 493.079 476.162 502.243C475.147 510.376 485.062 515.165 490.858 509.374C498.235 502.003 503.954 488.198 527.846 467.741C530.448 465.512 535.215 461.879 541.928 463.255C543.296 463.692 544.657 464.165 546.011 464.673C570.735 473.907 588.309 492.317 594.225 515.18C596.383 523.51 599.662 540.292 597.413 559.105H597.399Z" fill="#020203"/>
<path d="M362.965 590.538C358.551 597.641 351.09 603.207 343.283 605.753C333.933 608.977 323.214 608.335 314.328 604.074C306.141 600.145 301.571 594.248 299.019 588.64C296.572 583.251 302.375 577.812 307.622 580.57C313.658 583.745 321.5 586.806 329.842 587.293C338.805 587.815 347.846 584.718 354.757 581.403C360.511 578.652 366.336 585.12 362.965 590.538Z" fill="#020203"/>
<path d="M724.989 588.64C722.443 594.248 717.866 600.145 709.686 604.074C700.801 608.335 690.075 608.977 680.731 605.753C672.924 603.207 665.463 597.641 661.042 590.538C657.678 585.12 663.503 578.652 669.257 581.403C676.161 584.718 685.209 587.815 694.172 587.293C702.514 586.806 710.349 583.745 716.392 580.57C721.632 577.812 727.443 583.251 724.989 588.64Z" fill="#020203"/>
</g>
<defs>
<clipPath id="clip0_2421_252">
<rect width="690" height="891" fill="white" transform="translate(167 133)"/>
</clipPath>
</defs>
</svg>
